HIERARCHY
ROOT joint_0
{
	OFFSET 0.000000 0.000000 0.000000
	CHANNELS 6 Xposition Yposition Zposition Zrotation Yrotation Xrotation 
	JOINT joint_1
	{
		OFFSET 0.511002 1.944000 108.288940
		CHANNELS 3 Zrotation Yrotation Xrotation
		JOINT joint_2
		{
			OFFSET -9.074005 1.512993 98.440063
			CHANNELS 3 Zrotation Yrotation Xrotation
			JOINT joint_3
			{
				OFFSET -8.590996 1.815002 98.366943
				CHANNELS 3 Zrotation Yrotation Xrotation
				JOINT joint_4
				{
					OFFSET 2.489998 3.531998 136.462036
					CHANNELS 3 Zrotation Yrotation Xrotation
					JOINT joint_5
					{
						OFFSET 22.708000 2.955002 80.357056
						CHANNELS 3 Zrotation Yrotation Xrotation
						End Site
						{
							OFFSET 0.000000 0.000000 0.000000
						}
					}
				}
				JOINT joint_6
				{
					OFFSET 2.860001 -27.684998 77.234009
					CHANNELS 3 Zrotation Yrotation Xrotation
					JOINT joint_7
					{
						OFFSET 5.449997 -131.244003 -18.851929
						CHANNELS 3 Zrotation Yrotation Xrotation
						JOINT joint_8
						{
							OFFSET 35.757000 -24.661995 -264.074097
							CHANNELS 3 Zrotation Yrotation Xrotation
							JOINT joint_9
							{
								OFFSET 49.392001 -1.747002 -239.960938
								CHANNELS 3 Zrotation Yrotation Xrotation
								End Site
								{
									OFFSET 0.000000 0.000000 0.000000
								}
							}
						}
					}
				}
				JOINT joint_10
				{
					OFFSET -0.127998 31.625000 75.753052
					CHANNELS 3 Zrotation Yrotation Xrotation
					JOINT joint_11
					{
						OFFSET -5.618004 131.132996 -19.557007
						CHANNELS 3 Zrotation Yrotation Xrotation
						JOINT joint_12
						{
							OFFSET 46.488998 30.127991 -261.826050
							CHANNELS 3 Zrotation Yrotation Xrotation
							JOINT joint_13
							{
								OFFSET 66.021003 0.474030 -235.934937
								CHANNELS 3 Zrotation Yrotation Xrotation
								End Site
								{
									OFFSET 0.000000 0.000000 0.000000
								}
							}
						}
					}
				}
			}
		}
	}
	JOINT joint_14
	{
		OFFSET 15.887001 -78.871004 -94.561035
		CHANNELS 3 Zrotation Yrotation Xrotation
		JOINT joint_15
		{
			OFFSET -4.133003 6.714001 -473.615967
			CHANNELS 3 Zrotation Yrotation Xrotation
			JOINT joint_16
			{
				OFFSET -19.541000 5.340000 -399.613007
				CHANNELS 3 Zrotation Yrotation Xrotation
				JOINT joint_17
				{
					OFFSET 164.317001 41.657999 -73.195000
					CHANNELS 3 Zrotation Yrotation Xrotation
					End Site
					{
						OFFSET 0.000000 0.000000 0.000000
					}
				}
			}
		}
	}
	JOINT joint_18
	{
		OFFSET 6.513000 77.960991 -96.406982
		CHANNELS 3 Zrotation Yrotation Xrotation
		JOINT joint_19
		{
			OFFSET -10.660004 -8.518997 -473.485016
			CHANNELS 3 Zrotation Yrotation Xrotation
			JOINT joint_20
			{
				OFFSET -36.967995 -11.098999 -398.260010
				CHANNELS 3 Zrotation Yrotation Xrotation
				JOINT joint_21
				{
					OFFSET 166.067997 30.363998 -74.785000
					CHANNELS 3 Zrotation Yrotation Xrotation
					End Site
					{
						OFFSET 0.000000 0.000000 0.000000
					}
				}
			}
		}
	}
}
MOTION
Frames: 15
Frame Time: 0.016667
-2784.072754 884.249146 1062.845947 0.539711 -1.016929 0.396792 -0.312656 -0.669373 -1.840443 -0.127348 0.096160 0.386871 -0.182032 -0.135677 -0.275626 -0.029705 -1.380233 0.288259 0.000000 0.000000 0.000000 -1.965948 3.270604 0.306601 0.440096 3.084894 3.755710 -1.372235 6.583060 -6.700387 0.000000 0.000000 0.000000 -3.255885 3.529598 -1.083287 0.192041 4.080082 -0.453108 1.285276 5.552113 4.412659 0.000000 0.000000 0.000000 -2.118984 1.956965 -3.819663 -2.224434 -1.959011 -0.111893 -2.113642 2.020844 -1.446587 0.000000 0.000000 0.000000 -0.755408 1.344934 3.318211 -0.578048 -3.061730 -0.705699 -0.744672 3.957537 -1.057693 0.000000 0.000000 0.000000 
-2784.123291 884.254089 1062.829956 0.521568 -1.025040 0.394551 -0.319316 -0.656453 -1.843681 -0.133420 0.093447 0.387762 -0.188363 -0.130917 -0.276102 -0.030763 -1.381448 0.292275 0.000000 0.000000 0.000000 -1.960561 3.271575 0.314181 0.440804 3.086192 3.753038 -1.369597 6.577808 -6.690540 0.000000 0.000000 0.000000 -3.253665 3.528294 -1.081154 0.191078 4.077980 -0.458575 1.285204 5.554420 4.410226 0.000000 0.000000 0.000000 -2.110860 1.957296 -3.818190 -2.216250 -1.953227 -0.112838 -2.105716 2.020934 -1.443107 0.000000 0.000000 0.000000 -0.748924 1.350296 3.320792 -0.571545 -3.054342 -0.707422 -0.738304 3.949654 -1.053397 0.000000 0.000000 0.000000 
-2784.171875 884.259216 1062.812012 0.502502 -1.035578 0.392973 -0.325647 -0.640390 -1.847399 -0.139134 0.092143 0.388190 -0.194163 -0.128769 -0.275923 -0.031998 -1.383199 0.296986 0.000000 0.000000 0.000000 -1.953521 3.274079 0.321227 0.441148 3.089268 3.748824 -1.366279 6.570538 -6.676875 0.000000 0.000000 0.000000 -3.250299 3.527817 -1.079275 0.190216 4.076521 -0.465043 1.285312 5.555110 4.408554 0.000000 0.000000 0.000000 -2.102389 1.959751 -3.817403 -2.207738 -1.946175 -0.114165 -2.097525 2.019962 -1.439240 0.000000 0.000000 0.000000 -0.742452 1.358404 3.322579 -0.565041 -3.046711 -0.708863 -0.731903 3.941747 -1.049082 0.000000 0.000000 0.000000 
-2784.203125 884.259766 1062.791016 0.485742 -1.044781 0.391402 -0.331553 -0.627133 -1.852049 -0.144333 0.089985 0.388993 -0.199580 -0.124902 -0.276327 -0.032922 -1.386240 0.300769 0.000000 0.000000 0.000000 -1.947519 3.277423 0.330530 0.441236 3.092914 3.742979 -1.363047 6.564108 -6.663344 0.000000 0.000000 0.000000 -3.248067 3.528301 -1.077988 0.189667 4.076300 -0.470737 1.285421 5.554807 4.407055 0.000000 0.000000 0.000000 -2.094565 1.962539 -3.816187 -2.199878 -1.940158 -0.115858 -2.089987 2.018791 -1.435611 0.000000 0.000000 0.000000 -0.736246 1.364636 3.325338 -0.558819 -3.036094 -0.712140 -0.725817 3.930519 -1.044300 0.000000 0.000000 0.000000 
-2784.210693 884.254150 1062.765015 0.471909 -1.046387 0.389069 -0.336952 -0.624653 -1.857063 -0.149163 0.087829 0.389748 -0.204615 -0.121828 -0.276786 -0.033155 -1.387757 0.301897 0.000000 0.000000 0.000000 -1.943858 3.283375 0.340989 0.441103 3.098816 3.736980 -1.360360 6.559196 -6.652416 0.000000 0.000000 0.000000 -3.244873 3.531606 -1.077644 0.189175 4.078814 -0.476578 1.285406 5.554675 4.405453 0.000000 0.000000 0.000000 -2.087144 1.959912 -3.813629 -2.192357 -1.937580 -0.116855 -2.082618 2.021361 -1.433006 0.000000 0.000000 0.000000 -0.730773 1.361837 3.330166 -0.553475 -3.021076 -0.717147 -0.720549 3.914020 -1.038920 0.000000 0.000000 0.000000 
-2784.199707 884.243958 1062.734985 0.460238 -1.047129 0.386653 -0.341882 -0.623973 -1.863960 -0.153158 0.084218 0.392693 -0.209152 -0.118141 -0.278441 -0.033198 -1.388739 0.302280 0.000000 0.000000 0.000000 -1.941699 3.290808 0.352660 0.440742 3.105933 3.730171 -1.357758 6.554705 -6.641628 0.000000 0.000000 0.000000 -3.242746 3.536456 -1.077614 0.188896 4.083105 -0.481842 1.285071 5.553501 4.402947 0.000000 0.000000 0.000000 -2.080492 1.958294 -3.810697 -2.185623 -1.936155 -0.117688 -2.076014 2.023347 -1.430592 0.000000 0.000000 0.000000 -0.725524 1.358026 3.336070 -0.548340 -3.003770 -0.724003 -0.715546 3.894123 -1.033036 0.000000 0.000000 0.000000 
-2784.166992 884.233582 1062.699951 0.453512 -1.063321 0.385866 -0.348277 -0.606743 -1.871958 -0.158320 0.079078 0.394541 -0.214856 -0.110852 -0.280166 -0.033069 -1.394351 0.302682 0.000000 0.000000 0.000000 -1.938441 3.295662 0.366572 0.440468 3.110468 3.722088 -1.355141 6.551839 -6.630499 0.000000 0.000000 0.000000 -3.241261 3.540060 -1.077770 0.189018 4.086435 -0.484014 1.283887 5.550030 4.397591 0.000000 0.000000 0.000000 -2.077040 1.977044 -3.809760 -2.182416 -1.934824 -0.120777 -2.073195 2.017525 -1.427872 0.000000 0.000000 0.000000 -0.722070 1.372722 3.340072 -0.544680 -2.988139 -0.731010 -0.712016 3.874202 -1.027807 0.000000 0.000000 0.000000 
-2784.117920 884.223450 1062.661011 0.448193 -1.099473 0.385232 -0.355475 -0.569836 -1.878489 -0.164189 0.071214 0.394857 -0.221201 -0.100093 -0.281420 -0.032701 -1.402211 0.302548 0.000000 0.000000 0.000000 -1.929468 3.298036 0.382563 0.439956 3.113174 3.711796 -1.352603 6.550291 -6.619303 0.000000 0.000000 0.000000 -3.239777 3.542581 -1.078845 0.189612 4.088921 -0.482948 1.281717 5.544146 4.388844 0.000000 0.000000 0.000000 -2.078203 2.021090 -3.809231 -2.184192 -1.931775 -0.126956 -2.075848 1.996472 -1.423715 0.000000 0.000000 0.000000 -0.719209 1.411904 3.343667 -0.541119 -2.976384 -0.738035 -0.708718 3.856591 -1.023104 0.000000 0.000000 0.000000 
-2784.046875 884.214111 1062.616943 0.446967 -1.150961 0.386076 -0.363680 -0.516824 -1.886362 -0.170603 0.062750 0.395866 -0.228358 -0.087403 -0.284503 -0.032284 -1.412767 0.302606 0.000000 0.000000 0.000000 -1.920358 3.298395 0.400717 0.439505 3.113736 3.700413 -1.349965 6.549735 -6.607438 0.000000 0.000000 0.000000 -3.239201 3.544279 -1.079365 0.190526 4.090854 -0.478991 1.278480 5.535983 4.376544 0.000000 0.000000 0.000000 -2.082277 2.085230 -3.810734 -2.189211 -1.928711 -0.134908 -2.081999 1.966970 -1.418963 0.000000 0.000000 0.000000 -0.717755 1.469799 3.345412 -0.538637 -2.966788 -0.745200 -0.706530 3.839234 -1.018944 0.000000 0.000000 0.000000 
-2783.927979 884.206604 1062.572998 0.459935 -1.222930 0.394955 -0.376584 -0.433920 -1.906704 -0.179874 0.051235 0.399247 -0.238803 -0.069082 -0.288272 -0.031782 -1.434529 0.303866 0.000000 0.000000 0.000000 -1.917624 3.294998 0.424419 0.438975 3.109281 3.685508 -1.346677 6.546655 -6.592450 0.000000 0.000000 0.000000 -3.238904 3.542578 -1.083196 0.192497 4.090167 -0.464654 1.273783 5.526458 4.359387 0.000000 0.000000 0.000000 -2.087896 2.175989 -3.822450 -2.196391 -1.928813 -0.141791 -2.089993 1.944560 -1.416813 0.000000 0.000000 0.000000 -0.721003 1.552007 3.338042 -0.540586 -2.958652 -0.752481 -0.708633 3.821153 -1.016573 0.000000 0.000000 0.000000 
-2783.806641 884.196228 1062.520996 0.503158 -1.328607 0.418226 -0.398219 -0.309265 -1.952634 -0.194398 0.037212 0.408244 -0.255442 -0.043430 -0.294950 -0.032668 -1.465292 0.311225 0.000000 0.000000 0.000000 -1.924661 3.283891 0.456385 0.439148 3.095416 3.673996 -1.344336 6.542868 -6.582304 0.000000 0.000000 0.000000 -3.249741 3.531538 -1.088931 0.195683 4.082616 -0.436405 1.268510 5.520933 4.340054 0.000000 0.000000 0.000000 -2.097572 2.305935 -3.851574 -2.208534 -1.933366 -0.147279 -2.102375 1.935230 -1.419899 0.000000 0.000000 0.000000 -0.734381 1.667478 3.314765 -0.552383 -2.950774 -0.760100 -0.720233 3.804381 -1.018694 0.000000 0.000000 0.000000 
-2783.637695 884.188782 1062.468994 0.560182 -1.454569 0.449343 -0.424619 -0.155002 -2.010867 -0.211821 0.019684 0.420206 -0.275563 -0.010640 -0.303017 -0.033195 -1.509449 0.319121 0.000000 0.000000 0.000000 -1.938172 3.268390 0.493654 0.439357 3.075890 3.659355 -1.341332 6.536679 -6.569045 0.000000 0.000000 0.000000 -3.260188 3.516703 -1.097569 0.199898 4.071921 -0.397818 1.261649 5.513514 4.315447 0.000000 0.000000 0.000000 -2.108720 2.462279 -3.890847 -2.222779 -1.941189 -0.151548 -2.116537 1.932880 -1.425529 0.000000 0.000000 0.000000 -0.752524 1.806930 3.282129 -0.568736 -2.944013 -0.767197 -0.736180 3.787010 -1.022651 0.000000 0.000000 0.000000 
-2783.264404 884.201660 1062.446045 0.591983 -1.564610 0.475748 -0.446581 0.002811 -2.053235 -0.226422 0.000561 0.429731 -0.292599 0.023324 -0.310008 -0.031353 -1.572800 0.321233 0.000000 0.000000 0.000000 -1.956820 3.258910 0.533745 0.437273 3.060734 3.615490 -1.330836 6.519727 -6.519040 0.000000 0.000000 0.000000 -3.238894 3.513852 -1.112379 0.204878 4.069139 -0.354565 1.249777 5.489105 4.274848 0.000000 0.000000 0.000000 -2.111780 2.611944 -3.927671 -2.229022 -1.951962 -0.151364 -2.122535 1.933952 -1.428424 0.000000 0.000000 0.000000 -0.762127 1.946407 3.253122 -0.576487 -2.940915 -0.773734 -0.743884 3.764435 -1.021963 0.000000 0.000000 0.000000 
-2782.810303 884.219055 1062.467041 0.588370 -1.658613 0.496109 -0.461249 0.165756 -2.080276 -0.234858 -0.027555 0.440120 -0.303904 0.063666 -0.317866 -0.027384 -1.632357 0.315351 0.000000 0.000000 0.000000 -1.961831 3.245989 0.608970 0.430254 3.041218 3.518992 -1.315176 6.503286 -6.443079 0.000000 0.000000 0.000000 -3.172855 3.498355 -1.153332 0.206928 4.049052 -0.284290 1.236907 5.508810 4.230680 0.000000 0.000000 0.000000 -2.103952 2.746273 -3.957636 -2.224257 -1.967321 -0.149883 -2.117271 1.950444 -1.430260 0.000000 0.000000 0.000000 -0.760668 2.076890 3.230184 -0.573333 -2.936423 -0.779247 -0.740986 3.739777 -1.016146 0.000000 0.000000 0.000000 
-2782.153320 884.256714 1062.516968 0.560334 -1.736553 0.511660 -0.471236 0.333584 -2.091200 -0.240178 -0.059575 0.448266 -0.311976 0.106867 -0.325262 -0.021129 -1.712740 0.304191 0.000000 0.000000 0.000000 -1.974702 3.238382 0.687434 0.421169 3.024958 3.393589 -1.292199 6.477623 -6.331232 0.000000 0.000000 0.000000 -3.076744 3.494279 -1.200523 0.209824 4.036604 -0.208905 1.219046 5.511347 4.170508 0.000000 0.000000 0.000000 -2.088365 2.873868 -3.985101 -2.211826 -1.985759 -0.143734 -2.104157 1.970517 -1.429541 0.000000 0.000000 0.000000 -0.750843 2.207070 3.210850 -0.561771 -2.935355 -0.783857 -0.729985 3.709443 -1.005661 0.000000 0.000000 0.000000 
